<svg width="256" height="256" viewBox="0 0 256 256" fill="none" xmlns="http://www.w3.org/2000/svg">
<mask id="mask0_112_465" style="mask-type:alpha" maskUnits="userSpaceOnUse" x="0" y="0" width="256" height="257">
<path fill-rule="evenodd" clip-rule="evenodd" d="M4.51936 98.5353C25.9384 26.9433 85.9103 5.88672 107.329 1.67541C128.748 -2.53588 188.721 -2.53588 214.425 47.9997C261.546 77.4792 261.546 136.437 248.694 170.128C235.843 203.819 188.721 266.988 107.329 254.354C77.3426 250.143 51.6412 224.875 43.0736 208.029C23.0824 195.395 -12.6157 155.808 4.51936 98.5353ZM54.2396 196.708C47.4419 185.669 37.798 155.892 53.6036 125.1C73.3609 86.6098 85.7313 75.0902 104.664 64.4621C128.287 51.2013 161.996 33.021 202.224 58.1878C226.075 106.49 197.613 154.166 172.49 177.77C147.366 201.374 100.879 224.714 54.2396 196.708Z" fill="#9387FD"/>
</mask>
<g mask="url(#mask0_112_465)">
<path fill-rule="evenodd" clip-rule="evenodd" d="M4.51936 98.5353C25.9384 26.9433 85.9103 5.88672 107.329 1.67541C128.748 -2.53588 188.721 -2.53588 214.425 47.9997C261.546 77.4792 261.546 136.437 248.694 170.128C235.843 203.819 188.721 266.988 107.329 254.354C77.3426 250.143 51.6412 224.875 43.0736 208.029C23.0824 195.395 -12.6157 155.808 4.51936 98.5353ZM54.2396 196.708C47.4419 185.669 37.798 155.892 53.6036 125.1C73.3609 86.6098 85.7313 75.0902 104.664 64.4621C128.287 51.2013 161.996 33.021 202.224 58.1878C226.075 106.49 197.613 154.166 172.49 177.77C147.366 201.374 100.879 224.714 54.2396 196.708Z" fill="#9387FD"/>
<g filter="url(#filter0_f_112_465)">
<path d="M180.27 63.9787C146.652 27.5598 94.4512 97.6035 64.7109 126.195C72.6921 48.2133 147.602 29.1048 175.193 38.2173C220.801 53.2806 203.699 89.3584 180.27 63.9787Z" fill="url(#paint0_linear_112_465)"/>
</g>
<path d="M238.993 170.348C257.884 94.2891 222.345 63.8702 202.213 58.168L161.688 180.828L195.963 250.822C202.436 255.689 220.103 246.405 238.993 170.348Z" fill="url(#paint1_linear_112_465)"/>
<g filter="url(#filter1_f_112_465)">
<path d="M232.321 186.752C238.258 169.22 248.293 128.146 240.939 104.106C231.745 74.0551 208.5 55.4446 184.438 52.2136" stroke="url(#paint2_linear_112_465)" stroke-width="2.1419"/>
</g>
<g filter="url(#filter2_f_112_465)">
<path d="M233.97 188.014C239.907 170.481 249.942 129.407 242.587 105.367C233.394 75.316 205.918 52.4953 181.855 49.2644" stroke="url(#paint3_linear_112_465)" stroke-width="4.2838"/>
</g>
<g filter="url(#filter3_f_112_465)">
<path d="M80.4521 81.8033C112.272 19.576 182.978 33.3849 214.354 48.0677L208.034 18.6795L173.65 -13.0858L115.655 -16.7512L20.793 36.191C27.4211 77.3231 48.6323 144.031 80.4521 81.8033Z" fill="url(#paint4_linear_112_465)"/>
</g>
<g filter="url(#filter4_f_112_465)">
<path d="M80.5741 90.7233C79.1942 75.8538 106.228 41.0054 137.142 37.0278C175.785 32.0559 225.773 42.9741 245.579 71.4122" stroke="url(#paint5_linear_112_465)" stroke-width="2.1419"/>
</g>
<g filter="url(#filter5_f_112_465)">
<path d="M83.3643 82.2206C68.8141 101.642 57.5334 166.166 54.2808 196.843C-11.1816 159.276 16.9461 66.5873 18.5886 61.3773C6.35036 94.3049 18.6618 61.1482 18.6618 61.1482C18.6618 61.1482 18.6364 61.2258 18.5886 61.3773C18.617 61.301 18.6454 61.2243 18.6741 61.1473C52.4323 56.6932 97.9145 62.7989 83.3643 82.2206Z" fill="url(#paint6_linear_112_465)"/>
</g>
<g opacity="0.5" filter="url(#filter6_f_112_465)">
<path d="M38.6175 39.1055C12.3148 68.0646 -11.5265 137.647 34.7326 182.254C80.9918 226.86 143.768 210.262 163.039 182.254" stroke="url(#paint7_linear_112_465)" stroke-width="2.99866"/>
</g>
<g opacity="0.7" filter="url(#filter7_f_112_465)">
<path d="M8.75 176.502C61.8917 221.108 134.513 199.259 164.18 182.757C134.299 207.056 61.3789 239.823 8.75 176.502Z" fill="white"/>
<path d="M8.75 176.502C61.8917 221.108 134.513 199.259 164.18 182.757C134.299 207.056 61.3789 239.823 8.75 176.502Z" stroke="white" stroke-width="8.56761"/>
</g>
<g filter="url(#filter8_f_112_465)">
<path d="M38.2305 205.721C64.0216 218.894 124.232 234.959 158.746 193.834C180.873 167.468 189.795 153.999 192.528 147.797V143.227C193.648 143.131 194.059 144.325 192.528 147.797V249.039C147.651 266.299 53.9636 281.8 38.2305 205.721Z" fill="url(#paint8_linear_112_465)"/>
<path d="M38.2305 205.721C64.0216 218.894 124.232 234.959 158.746 193.834C180.873 167.468 189.795 153.999 192.528 147.797V143.227C193.648 143.131 194.059 144.325 192.528 147.797V249.039C147.651 266.299 53.9636 281.8 38.2305 205.721Z" fill="url(#paint9_linear_112_465)"/>
</g>
<g filter="url(#filter9_f_112_465)">
<path d="M68.1055 238.07C77.2346 247.396 104.838 264.131 142.219 256.472C188.944 246.898 220.904 220.117 230.643 205.007C240.383 189.896 257.679 157.023 258.887 141.138" stroke="url(#paint10_linear_112_465)" stroke-width="4.2838"/>
</g>
<g filter="url(#filter10_f_112_465)">
<path d="M19.4532 59.8295C-6.77122 128.681 -16.7873 148.365 37.5196 209.262" stroke="url(#paint11_linear_112_465)" stroke-width="8.56761"/>
</g>
<g filter="url(#filter11_f_112_465)">
<path d="M26.3984 197.949C40.529 208.757 90.131 225.573 119.47 218.363C148.81 211.152 173.706 176.591 185.216 164.69" stroke="url(#paint12_linear_112_465)" stroke-width="1.28514"/>
</g>
</g>
<defs>
<filter id="filter0_f_112_465" x="56.1433" y="27.5574" width="156.237" height="107.205" filterUnits="userSpaceOnUse" color-interpolation-filters="sRGB">
<feFlood flood-opacity="0" result="BackgroundImageFix"/>
<feBlend mode="normal" in="SourceGraphic" in2="BackgroundImageFix" result="shape"/>
<feGaussianBlur stdDeviation="4.2838" result="effect1_foregroundBlur_112_465"/>
</filter>
<filter id="filter1_f_112_465" x="180.011" y="46.8684" width="68.8737" height="144.511" filterUnits="userSpaceOnUse" color-interpolation-filters="sRGB">
<feFlood flood-opacity="0" result="BackgroundImageFix"/>
<feBlend mode="normal" in="SourceGraphic" in2="BackgroundImageFix" result="shape"/>
<feGaussianBlur stdDeviation="2.1419" result="effect1_foregroundBlur_112_465"/>
</filter>
<filter id="filter2_f_112_465" x="180.285" y="45.8564" width="68.3203" height="144.13" filterUnits="userSpaceOnUse" color-interpolation-filters="sRGB">
<feFlood flood-opacity="0" result="BackgroundImageFix"/>
<feBlend mode="normal" in="SourceGraphic" in2="BackgroundImageFix" result="shape"/>
<feGaussianBlur stdDeviation="0.642571" result="effect1_foregroundBlur_112_465"/>
</filter>
<filter id="filter3_f_112_465" x="18.6511" y="-18.8931" width="197.845" height="128.216" filterUnits="userSpaceOnUse" color-interpolation-filters="sRGB">
<feFlood flood-opacity="0" result="BackgroundImageFix"/>
<feBlend mode="normal" in="SourceGraphic" in2="BackgroundImageFix" result="shape"/>
<feGaussianBlur stdDeviation="1.07095" result="effect1_foregroundBlur_112_465"/>
</filter>
<filter id="filter4_f_112_465" x="75.1688" y="30.5124" width="175.573" height="64.5937" filterUnits="userSpaceOnUse" color-interpolation-filters="sRGB">
<feFlood flood-opacity="0" result="BackgroundImageFix"/>
<feBlend mode="normal" in="SourceGraphic" in2="BackgroundImageFix" result="shape"/>
<feGaussianBlur stdDeviation="2.1419" result="effect1_foregroundBlur_112_465"/>
</filter>
<filter id="filter5_f_112_465" x="2.61991" y="51.1955" width="92.101" height="154.215" filterUnits="userSpaceOnUse" color-interpolation-filters="sRGB">
<feFlood flood-opacity="0" result="BackgroundImageFix"/>
<feBlend mode="normal" in="SourceGraphic" in2="BackgroundImageFix" result="shape"/>
<feGaussianBlur stdDeviation="4.2838" result="effect1_foregroundBlur_112_465"/>
</filter>
<filter id="filter6_f_112_465" x="2.74111" y="33.8136" width="165.817" height="181.801" filterUnits="userSpaceOnUse" color-interpolation-filters="sRGB">
<feFlood flood-opacity="0" result="BackgroundImageFix"/>
<feBlend mode="normal" in="SourceGraphic" in2="BackgroundImageFix" result="shape"/>
<feGaussianBlur stdDeviation="2.1419" result="effect1_foregroundBlur_112_465"/>
</filter>
<filter id="filter7_f_112_465" x="-11.6796" y="156.086" width="195.698" height="78.531" filterUnits="userSpaceOnUse" color-interpolation-filters="sRGB">
<feFlood flood-opacity="0" result="BackgroundImageFix"/>
<feBlend mode="normal" in="SourceGraphic" in2="BackgroundImageFix" result="shape"/>
<feGaussianBlur stdDeviation="8.56761" result="effect1_foregroundBlur_112_465"/>
</filter>
<filter id="filter8_f_112_465" x="36.0886" y="141.08" width="159.582" height="124.263" filterUnits="userSpaceOnUse" color-interpolation-filters="sRGB">
<feFlood flood-opacity="0" result="BackgroundImageFix"/>
<feBlend mode="normal" in="SourceGraphic" in2="BackgroundImageFix" result="shape"/>
<feGaussianBlur stdDeviation="1.07095" result="effect1_foregroundBlur_112_465"/>
</filter>
<filter id="filter9_f_112_465" x="58.0071" y="132.408" width="211.583" height="136.725" filterUnits="userSpaceOnUse" color-interpolation-filters="sRGB">
<feFlood flood-opacity="0" result="BackgroundImageFix"/>
<feBlend mode="normal" in="SourceGraphic" in2="BackgroundImageFix" result="shape"/>
<feGaussianBlur stdDeviation="4.2838" result="effect1_foregroundBlur_112_465"/>
</filter>
<filter id="filter10_f_112_465" x="-14.6403" y="49.7371" width="63.9247" height="170.944" filterUnits="userSpaceOnUse" color-interpolation-filters="sRGB">
<feFlood flood-opacity="0" result="BackgroundImageFix"/>
<feBlend mode="normal" in="SourceGraphic" in2="BackgroundImageFix" result="shape"/>
<feGaussianBlur stdDeviation="4.2838" result="effect1_foregroundBlur_112_465"/>
</filter>
<filter id="filter11_f_112_465" x="23.8659" y="162.102" width="163.954" height="60.7878" filterUnits="userSpaceOnUse" color-interpolation-filters="sRGB">
<feFlood flood-opacity="0" result="BackgroundImageFix"/>
<feBlend mode="normal" in="SourceGraphic" in2="BackgroundImageFix" result="shape"/>
<feGaussianBlur stdDeviation="1.07095" result="effect1_foregroundBlur_112_465"/>
</filter>
<linearGradient id="paint0_linear_112_465" x1="77.7285" y1="84.1087" x2="190.725" y2="49.6262" gradientUnits="userSpaceOnUse">
<stop offset="0.168435" stop-color="#544CA4"/>
<stop offset="1" stop-color="#8177E9" stop-opacity="0"/>
</linearGradient>
<linearGradient id="paint1_linear_112_465" x1="225.086" y1="86.908" x2="190.975" y2="190.023" gradientUnits="userSpaceOnUse">
<stop stop-color="#574EAA"/>
<stop offset="1" stop-color="#9488FF" stop-opacity="0"/>
</linearGradient>
<linearGradient id="paint2_linear_112_465" x1="224.077" y1="36.596" x2="239.282" y2="187.275" gradientUnits="userSpaceOnUse">
<stop stop-color="white" stop-opacity="0.5"/>
<stop offset="1" stop-color="white" stop-opacity="0.15"/>
</linearGradient>
<linearGradient id="paint3_linear_112_465" x1="225.729" y1="37.856" x2="240.934" y2="188.536" gradientUnits="userSpaceOnUse">
<stop stop-color="#8C80FA"/>
<stop offset="0.744652" stop-color="#968AFA"/>
</linearGradient>
<linearGradient id="paint4_linear_112_465" x1="203.661" y1="33.1785" x2="46.3758" y2="75.2993" gradientUnits="userSpaceOnUse">
<stop stop-color="#B4A9FD"/>
<stop offset="0.425" stop-color="#C7BCFF"/>
<stop offset="1" stop-color="#9387FD"/>
</linearGradient>
<linearGradient id="paint5_linear_112_465" x1="241.368" y1="49.2943" x2="88.2361" y2="90.7065" gradientUnits="userSpaceOnUse">
<stop stop-color="white"/>
<stop offset="1" stop-color="white" stop-opacity="0.15"/>
</linearGradient>
<linearGradient id="paint6_linear_112_465" x1="41.7974" y1="59.8513" x2="45.2286" y2="190.576" gradientUnits="userSpaceOnUse">
<stop stop-color="#A79BFE" stop-opacity="0"/>
<stop offset="1" stop-color="#9183FF"/>
</linearGradient>
<linearGradient id="paint7_linear_112_465" x1="55.9823" y1="33.868" x2="79.3647" y2="208.639" gradientUnits="userSpaceOnUse">
<stop stop-color="white" stop-opacity="0.15"/>
<stop offset="0.227299" stop-color="white"/>
</linearGradient>
<linearGradient id="paint8_linear_112_465" x1="189.701" y1="193.484" x2="68.1453" y2="243.492" gradientUnits="userSpaceOnUse">
<stop stop-color="#9387FD"/>
<stop offset="1" stop-color="#554CA5"/>
</linearGradient>
<linearGradient id="paint9_linear_112_465" x1="103.312" y1="238.025" x2="46.0671" y2="202.34" gradientUnits="userSpaceOnUse">
<stop stop-color="#554CA5" stop-opacity="0"/>
<stop offset="1" stop-color="#484095"/>
</linearGradient>
<linearGradient id="paint10_linear_112_465" x1="184.73" y1="125.094" x2="187.904" y2="260.175" gradientUnits="userSpaceOnUse">
<stop stop-color="#48408F" stop-opacity="0.15"/>
<stop offset="1" stop-color="#48408F"/>
</linearGradient>
<linearGradient id="paint11_linear_112_465" x1="18.3003" y1="59.8295" x2="31.3509" y2="206.206" gradientUnits="userSpaceOnUse">
<stop stop-color="#5B52B0" stop-opacity="0.15"/>
<stop offset="1" stop-color="#5950AB"/>
</linearGradient>
<linearGradient id="paint12_linear_112_465" x1="80.3421" y1="224.829" x2="181.431" y2="169.459" gradientUnits="userSpaceOnUse">
<stop stop-color="#8F84FC"/>
<stop offset="1" stop-color="#9488FE"/>
</linearGradient>
</defs>
</svg>
